<?xml version="1.0" encoding="UTF-8" standalone="no"?>
<svg
   width="453.20483"
   zoomAndPan="magnify"
   viewBox="0 0 339.90362 133.22833"
   height="177.63779"
   preserveAspectRatio="xMidYMid meet"
   version="1.0"
   id="svg149"
   sodipodi:docname="hanover-primary-dark.svg"
   inkscape:version="1.1.2 (0a00cf5339, 2022-02-04)"
   xmlns:inkscape="http://www.inkscape.org/namespaces/inkscape"
   xmlns:sodipodi="http://sodipodi.sourceforge.net/DTD/sodipodi-0.dtd"
   xmlns="http://www.w3.org/2000/svg"
   xmlns:svg="http://www.w3.org/2000/svg">
  <sodipodi:namedview
     id="namedview151"
     pagecolor="#ffffff"
     bordercolor="#666666"
     borderopacity="1.0"
     inkscape:pageshadow="2"
     inkscape:pageopacity="0.0"
     inkscape:pagecheckerboard="0"
     showgrid="false"
     units="px"
     height="177.63779px"
     width="453.20483px"
     inkscape:zoom="1.098"
     inkscape:cx="250"
     inkscape:cy="249.54463"
     inkscape:window-width="1366"
     inkscape:window-height="740"
     inkscape:window-x="0"
     inkscape:window-y="28"
     inkscape:window-maximized="1"
     inkscape:current-layer="svg149" />
  <defs
     id="defs7">
    <g
       id="g2" />
    <clipPath
       id="911b68e4e4">
      <path
         d="m 17.617188,104.38672 h 77.25 v 117.75 h -77.25 z m 0,0"
         clip-rule="nonzero"
         id="path4" />
    </clipPath>
  </defs>
  <g
     id="g1038"
     transform="translate(-10.420898,-96.555323)">
    <g
       clip-path="url(#911b68e4e4)"
       id="g11">
      <path
         fill="#050a30"
         d="m 74.019531,165.71484 v -33.73047 11.03907 -28.21094 c 9.195313,5.51953 15.9375,16.55859 15.9375,28.21094 v 38.63672 H 56.242188 c -4.292969,0 -7.96875,-0.61329 -12.261719,-2.45313 v -13.49219 z m -30.039062,19.625 v 35.57032 l -7.96875,-4.90625 c -11.648438,-6.7461 -18.390625,-19.625 -18.390625,-33.11719 v -78.5 h 26.359375 v 34.95703 h 12.261719 c 4.289062,0 8.582031,0.61328 12.261718,1.83984 V 105 l 7.96875,4.90625 c 11.648438,7.35938 18.390625,19.625 18.390625,33.11719 v 79.11328 H 68.503906 V 187.17969 H 56.242188 c -4.292969,0 -7.96875,-0.61328 -12.261719,-1.83985 z m -20.84375,-45.99609 h 15.941406 v -29.4375 H 23.136719 Z m 45.367187,7.35937 c -3.679687,-1.22656 -7.972656,-1.83984 -12.261718,-1.83984 H 23.136719 v 38.02344 c 0,12.26562 6.132812,22.6914 15.941406,28.82422 v -28.82422 11.65234 -34.34375 c 9.808594,0 19.617187,0 29.425781,0 z m 5.515625,40.47657 v 29.4375 h 15.9375 v -29.4375 z m 0,0"
         fill-opacity="1"
         fill-rule="evenodd"
         id="path9" />
    </g>
    <g
       fill="#050a30"
       fill-opacity="1"
       id="g19">
      <g
         transform="translate(102.86043,165.94219)"
         id="g17">
        <g
           id="g15">
          <path
             d="M 8.765625,0.125 C 7.492188,0.0390625 5.988281,0 4.25,0 H 3.609375 v -26.484375 c 0.820313,0.07422 1.40625,0.109375 1.75,0.109375 h 0.8125 c 1.039063,0 1.90625,-0.05469 2.59375,-0.171875 v 10.578125 h 9.328125 v -10.515625 c 1.09375,0.07422 2.160156,0.109375 3.203125,0.109375 1.039063,0 1.691406,-0.05469 1.953125,-0.171875 V 0.125 C 22.613281,0.0390625 21.359375,0 19.484375,0 H 18.09375 V -11.203125 H 8.765625 Z m 0,0"
             id="path13" />
        </g>
      </g>
    </g>
    <g
       fill="#050a30"
       fill-opacity="1"
       id="g27">
      <g
         transform="translate(140.43583,165.94219)"
         id="g25">
        <g
           id="g23">
          <path
             d="M 5.34375,0.15625 C 4.195312,0.0507812 2.863281,0 1.34375,0 h -1.5625 l 8.625,-24.1875 c 0.382812,-1.082031 0.578125,-1.710938 0.578125,-1.890625 0,-0.175781 -0.00781,-0.285156 -0.015625,-0.328125 l 0.015625,-0.03125 c 0.863281,0.04297 1.773437,0.0625 2.734375,0.0625 0.789062,0 1.742188,-0.01563 2.859375,-0.04687 l 0.01563,0.04687 c -0.02344,0.05469 -0.03125,0.121094 -0.03125,0.203125 0,0.261719 0.195312,0.933594 0.59375,2.015625 L 23.96875,0.0625 C 23.695312,0.0507812 23.382812,0.046875 23.03125,0.046875 23.03125,0.046875 22.6875,0.03125 22,0 21.664062,0 21.367188,0 21.109375,0 H 18.03125 l -1.859375,-5.71875 h -8.96875 z m 9.28125,-10.625 -3,-9.234375 -2.921875,9.234375 z m 0,0"
             id="path21" />
        </g>
      </g>
    </g>
    <g
       fill="#050a30"
       fill-opacity="1"
       id="g35">
      <g
         transform="translate(174.69884,165.94219)"
         id="g33">
        <g
           id="g31">
          <path
             d="M 3.59375,0 C 3.664062,-0.445312 3.703125,-0.9375 3.703125,-1.46875 V -26.375 h 3.96875 L 18.1875,-9.84375 v -15.1875 c 0,-0.726562 -0.07031,-1.175781 -0.203125,-1.34375 h 5.359375 c -0.0625,0.523438 -0.09375,1.101562 -0.09375,1.734375 V 0 H 19.125 L 8.765625,-15.890625 V 0 Z m 0,0"
             id="path29" />
        </g>
      </g>
    </g>
    <g
       fill="#050a30"
       fill-opacity="1"
       id="g43">
      <g
         transform="translate(212.17506,165.94219)"
         id="g41">
        <g
           id="g39">
          <path
             d="M 5.5625,-3.125 C 4.363281,-4.28125 3.414062,-5.664062 2.71875,-7.28125 2.03125,-8.894531 1.6875,-10.660156 1.6875,-12.578125 c 0,-1.925781 0.320312,-3.75 0.96875,-5.46875 0.644531,-1.71875 1.566406,-3.234375 2.765625,-4.546875 1.207031,-1.3125 2.664063,-2.351562 4.375,-3.125 1.707031,-0.769531 3.617187,-1.15625 5.734375,-1.15625 3.644531,0 6.71875,1.152344 9.21875,3.453125 2.675781,2.460937 4.015625,5.777344 4.015625,9.953125 0,4.042969 -1.375,7.40625 -4.125,10.09375 -1.699219,1.65625 -3.714844,2.796875 -6.046875,3.421875 C 17.4375,0.347656 16.085938,0.5 14.546875,0.5 c -1.542969,0 -3.125,-0.320312 -4.75,-0.953125 C 8.179688,-1.085938 6.769531,-1.976562 5.5625,-3.125 Z m 1.640625,-9.734375 c 0,1.230469 0.203125,2.359375 0.609375,3.390625 0.414062,1.03125 0.984375,1.921875 1.703125,2.671875 1.550781,1.554687 3.546875,2.328125 5.984375,2.328125 2.3125,0 4.164062,-0.742188 5.5625,-2.234375 1.425781,-1.550781 2.140625,-3.660156 2.140625,-6.328125 0,-2.507812 -0.679687,-4.609375 -2.03125,-6.296875 -1.46875,-1.789063 -3.480469,-2.6875 -6.03125,-2.6875 -2.480469,0 -4.445313,0.914063 -5.890625,2.734375 -1.367188,1.710938 -2.046875,3.851562 -2.046875,6.421875 z m 0,0"
             id="path37" />
        </g>
      </g>
    </g>
    <g
       fill="#050a30"
       fill-opacity="1"
       id="g51">
      <g
         transform="translate(253.14219,165.94219)"
         id="g49">
        <g
           id="g47">
          <path
             d="M 14.703125,0.078125 C 14.273438,0.0234375 13.578125,0 12.609375,0 H 10.4375 C 10.070312,0 9.75,0.015625 9.46875,0.046875 L 9.4375,0 c 0.050781,-0.09375 0.078125,-0.195312 0.078125,-0.3125 0,-0.125 -0.011719,-0.25 -0.03125,-0.375 -0.011719,-0.132812 -0.0625,-0.375 -0.15625,-0.71875 C 9.234375,-1.75 9.085938,-2.242188 8.890625,-2.890625 l -0.84375,-2.65625 -7.375,-20.921875 c 0.820313,0.0625 1.867187,0.09375 3.140625,0.09375 1.269531,0 2.082031,-0.05469 2.4375,-0.171875 l 5.96875,18.03125 5.234375,-17.953125 c 0.789063,0.0625 1.769531,0.09375 2.9375,0.09375 1.582031,0 2.507813,-0.05469 2.78125,-0.171875 l -7.25,20.9375 c 0,0 -0.230469,0.773437 -0.6875,2.3125 -0.386719,1.324219 -0.578125,2.183594 -0.578125,2.578125 0,0.386719 0.02344,0.6328125 0.07813,0.734375 z m 0,0"
             id="path45" />
        </g>
      </g>
    </g>
    <g
       fill="#050a30"
       fill-opacity="1"
       id="g59">
      <g
         transform="translate(287.32587,165.94219)"
         id="g57">
        <g
           id="g55">
          <path
             d="M 16.6875,-4.765625 C 17.5,-4.765625 18.066406,-4.84375 18.390625,-5 L 18.46875,-4.984375 18.265625,0 H 3.40625 v -26.515625 c 0.363281,0.02344 0.765625,0.03906 1.203125,0.04687 l 1.375,0.04687 C 6.910156,-26.390625 7.914062,-26.375 9,-26.375 c 3.03125,0 6.023438,-0.05469 8.984375,-0.171875 -0.136719,1.167969 -0.203125,2.726563 -0.203125,4.671875 0,0.210938 0.0078,0.367188 0.03125,0.46875 l -0.03125,0.0625 c -0.699219,-0.195312 -1.679688,-0.296875 -2.9375,-0.296875 h -6.25 v 5.0625 h 4.703125 c 1.445313,0 2.316406,-0.03906 2.609375,-0.125 l 0.0625,4.90625 c -0.636719,-0.07031 -1.453125,-0.109375 -2.453125,-0.109375 H 8.59375 v 7.140625 z m 0,0"
             id="path53" />
        </g>
      </g>
    </g>
    <g
       fill="#050a30"
       fill-opacity="1"
       id="g67">
      <g
         transform="translate(318.19715,165.94219)"
         id="g65">
        <g
           id="g63">
          <path
             d="m 11.9375,-10.25 c -0.398438,0.02344 -0.820312,0.03125 -1.265625,0.03125 -0.449219,0 -1.117187,-0.03125 -2,-0.09375 V 0 H 3.40625 v -26.515625 c 1.851562,-0.238281 4.128906,-0.359375 6.828125,-0.359375 3.675781,0 6.414063,0.679688 8.21875,2.03125 1.8125,1.355469 2.71875,3.449219 2.71875,6.28125 0,2.1875 -0.828125,4.0625 -2.484375,5.625 -0.542969,0.511719 -1.164062,0.949219 -1.859375,1.3125 L 20.875,-3.09375 c 0.789062,1.761719 1.394531,2.808594 1.8125,3.140625 l -0.09375,0.09375 C 21.3125,-0.0664062 19.296875,-0.0625 16.546875,0.15625 Z m -1.328125,-11.953125 c -0.679687,0 -1.324219,0.03906 -1.9375,0.109375 v 7.578125 c 0.644531,0.09375 1.40625,0.140625 2.28125,0.140625 0.875,0 1.609375,-0.07813 2.203125,-0.234375 C 13.75,-14.765625 14.265625,-15 14.703125,-15.3125 c 0.9375,-0.695312 1.40625,-1.75 1.40625,-3.15625 0,-1.40625 -0.492187,-2.390625 -1.46875,-2.953125 -0.917969,-0.519531 -2.261719,-0.78125 -4.03125,-0.78125 z m 0,0"
             id="path61" />
        </g>
      </g>
    </g>
    <g
       fill="#050a30"
       fill-opacity="1"
       id="g75">
      <g
         transform="translate(107.70337,193.12756)"
         id="g73">
        <g
           id="g71">
          <path
             d="M 10.28125,0 H 8.84375 L 7.796875,-3.140625 h -4.875 L 1.859375,0 H 0.453125 L 4.4375,-11.421875 h 1.859375 z m -5.015625,-10.046875 -1.96875,5.78125 H 7.40625 l -1.953125,-5.78125 z m 0,0"
             id="path69" />
        </g>
      </g>
    </g>
    <g
       fill="#050a30"
       fill-opacity="1"
       id="g83">
      <g
         transform="translate(123.58711,193.12756)"
         id="g81">
        <g
           id="g79">
          <path
             d="m 5.828125,-1.375 0.40625,0.921875 C 6.035156,-0.253906 5.769531,-0.101562 5.4375,0 5.101562,0.113281 4.742188,0.171875 4.359375,0.171875 c -1.648437,0 -2.46875,-0.835937 -2.46875,-2.515625 v -5.234375 h -1.5 V -8.625 h 1.5 v -1.828125 l 1.28125,-0.203125 V -8.625 H 5.9375 v 1.046875 H 3.171875 v 5.109375 c 0,0.992188 0.425781,1.484375 1.28125,1.484375 0.46875,0 0.875,-0.128906 1.21875,-0.390625 z m 0,0"
             id="path77" />
        </g>
      </g>
    </g>
    <g
       fill="#050a30"
       fill-opacity="1"
       id="g91">
      <g
         transform="translate(135.3,193.12756)"
         id="g89">
        <g
           id="g87">
          <path
             d="m 5.828125,-1.375 0.40625,0.921875 C 6.035156,-0.253906 5.769531,-0.101562 5.4375,0 5.101562,0.113281 4.742188,0.171875 4.359375,0.171875 c -1.648437,0 -2.46875,-0.835937 -2.46875,-2.515625 v -5.234375 h -1.5 V -8.625 h 1.5 v -1.828125 l 1.28125,-0.203125 V -8.625 H 5.9375 v 1.046875 H 3.171875 v 5.109375 c 0,0.992188 0.425781,1.484375 1.28125,1.484375 0.46875,0 0.875,-0.128906 1.21875,-0.390625 z m 0,0"
             id="path85" />
        </g>
      </g>
    </g>
    <g
       fill="#050a30"
       fill-opacity="1"
       id="g99">
      <g
         transform="translate(147.01289,193.12756)"
         id="g97">
        <g
           id="g95">
          <path
             d="M 8.21875,-4.015625 H 2.296875 c 0.03125,1.042969 0.28125,1.808594 0.75,2.296875 0.46875,0.492188 1.109375,0.734375 1.921875,0.734375 0.613281,0 1.109375,-0.109375 1.484375,-0.328125 0.375,-0.21875 0.664063,-0.5625 0.875,-1.03125 H 7.5 l 0.828125,0.5 c -0.25,0.625 -0.652344,1.121094 -1.203125,1.484375 -0.554688,0.35546875 -1.273438,0.53125 -2.15625,0.53125 -0.835938,0 -1.554688,-0.16796875 -2.15625,-0.5 -0.59375,-0.332031 -1.054688,-0.832031 -1.375,-1.5 C 1.113281,-2.492188 0.953125,-3.320312 0.953125,-4.3125 c 0,-0.976562 0.164063,-1.800781 0.5,-2.46875 0.34375,-0.675781 0.8125,-1.175781 1.40625,-1.5 0.59375,-0.332031 1.269531,-0.5 2.03125,-0.5 1.101563,0 1.960937,0.3125 2.578125,0.9375 0.625,0.617188 0.9375,1.539062 0.9375,2.765625 0,0.480469 -0.011719,0.804687 -0.03125,0.96875 z m -1.0625,-1.0625 c -0.023438,-0.914063 -0.226562,-1.582031 -0.609375,-2 -0.386719,-0.414063 -0.9375,-0.625 -1.65625,-0.625 -0.761719,0 -1.355469,0.210937 -1.78125,0.625 -0.429687,0.417969 -0.6875,1.085937 -0.78125,2 z m 0,0"
             id="path93" />
        </g>
      </g>
    </g>
    <g
       fill="#050a30"
       fill-opacity="1"
       id="g107">
      <g
         transform="translate(161.35014,193.12756)"
         id="g105">
        <g
           id="g103">
          <path
             d="m 1.5,0 v -8.625 h 1.21875 v 1.359375 l 0.15625,0.03125 c 0.289062,-0.5 0.65625,-0.878906 1.09375,-1.140625 0.445312,-0.269531 0.992188,-0.40625 1.640625,-0.40625 1.03125,0 1.78125,0.265625 2.25,0.796875 0.46875,0.523437 0.703125,1.335937 0.703125,2.4375 V 0 H 7.28125 v -5.515625 c 0,-0.519531 -0.070312,-0.9375 -0.203125,-1.25 C 6.953125,-7.085938 6.75,-7.316406 6.46875,-7.453125 6.1875,-7.597656 5.820312,-7.671875 5.375,-7.671875 c -0.78125,0 -1.414062,0.257813 -1.890625,0.765625 -0.46875,0.511719 -0.703125,1.339844 -0.703125,2.484375 V 0 Z m 0,0"
             id="path101" />
        </g>
      </g>
    </g>
    <g
       fill="#050a30"
       fill-opacity="1"
       id="g115">
      <g
         transform="translate(176.42158,193.12756)"
         id="g113">
        <g
           id="g111">
          <path
             d="m 4.46875,0.171875 c -0.6875,0 -1.296875,-0.16796875 -1.828125,-0.5 -0.53125,-0.332031 -0.949219,-0.832031 -1.25,-1.5 -0.292969,-0.664063 -0.4375,-1.492187 -0.4375,-2.484375 0,-0.976562 0.15625,-1.800781 0.46875,-2.46875 0.3125,-0.675781 0.738281,-1.175781 1.28125,-1.5 0.550781,-0.332031 1.191406,-0.5 1.921875,-0.5 0.570312,0 1.085938,0.109375 1.546875,0.328125 0.457031,0.210937 0.847656,0.5625 1.171875,1.0625 l 0.171875,-0.03125 v -4.65625 H 8.78125 V 0 H 7.515625 V -1.265625 L 7.34375,-1.296875 C 7.0625,-0.867188 6.679688,-0.515625 6.203125,-0.234375 5.722656,0.0351562 5.144531,0.171875 4.46875,0.171875 Z M 4.875,-0.984375 c 0.800781,0 1.441406,-0.269531 1.921875,-0.8125 0.476563,-0.550781 0.71875,-1.390625 0.71875,-2.515625 0,-1.125 -0.242187,-1.957031 -0.71875,-2.5 C 6.316406,-7.363281 5.675781,-7.640625 4.875,-7.640625 c -0.835938,0 -1.476562,0.273437 -1.921875,0.8125 -0.449219,0.53125 -0.671875,1.371094 -0.671875,2.515625 0,2.21875 0.863281,3.328125 2.59375,3.328125 z m 0,0"
             id="path109" />
        </g>
      </g>
    </g>
    <g
       fill="#050a30"
       fill-opacity="1"
       id="g123">
      <g
         transform="translate(191.86013,193.12756)"
         id="g121">
        <g
           id="g119">
          <path
             d="m 3.5625,0.171875 c -0.855469,0 -1.523438,-0.2226562 -2,-0.671875 -0.46875,-0.445312 -0.703125,-1.082031 -0.703125,-1.90625 0,-0.507812 0.101563,-0.9375 0.3125,-1.28125 0.207031,-0.351562 0.53125,-0.640625 0.96875,-0.859375 0.445313,-0.226563 1.03125,-0.398437 1.75,-0.515625 0.625,-0.101562 1.097656,-0.21875 1.421875,-0.34375 0.320312,-0.132812 0.539062,-0.28125 0.65625,-0.4375 0.113281,-0.164062 0.171875,-0.375 0.171875,-0.625 0,-0.382812 -0.136719,-0.679688 -0.40625,-0.890625 C 5.460938,-7.566406 5.03125,-7.671875 4.4375,-7.671875 3.882812,-7.671875 3.40625,-7.5625 3,-7.34375 2.601562,-7.132812 2.238281,-6.816406 1.90625,-6.390625 H 1.75 l -0.625,-0.875 C 1.488281,-7.734375 1.953125,-8.101562 2.515625,-8.375 3.078125,-8.644531 3.71875,-8.78125 4.4375,-8.78125 c 1.019531,0 1.769531,0.226562 2.25,0.671875 0.476562,0.4375 0.71875,1.054687 0.71875,1.84375 v 4.5625 c 0,0.480469 0.203125,0.71875 0.609375,0.71875 0.132813,0 0.265625,-0.019531 0.390625,-0.0625 l 0.109375,0.03125 0.15625,0.875 C 8.578125,-0.078125 8.453125,-0.03125 8.296875,0 8.140625,0.0390625 7.984375,0.0625 7.828125,0.0625 7.347656,0.0625 6.988281,-0.0390625 6.75,-0.25 6.507812,-0.457031 6.351562,-0.765625 6.28125,-1.171875 L 6.125,-1.1875 c -0.25,0.449219 -0.585938,0.789062 -1,1.015625 -0.417969,0.2265625 -0.9375,0.34375 -1.5625,0.34375 z m 0.28125,-1.03125 c 0.476562,0 0.890625,-0.109375 1.234375,-0.328125 0.351563,-0.21875 0.625,-0.523438 0.8125,-0.921875 0.1875,-0.40625 0.28125,-0.875 0.28125,-1.40625 v -1.09375 L 6.03125,-4.640625 c -0.199219,0.136719 -0.4375,0.25 -0.71875,0.34375 -0.273438,0.09375 -0.652344,0.179687 -1.140625,0.25 -0.5,0.0625 -0.902344,0.167969 -1.203125,0.3125 -0.292969,0.136719 -0.5,0.3125 -0.625,0.53125 -0.125,0.21875 -0.1875,0.484375 -0.1875,0.796875 0,0.511719 0.144531,0.898438 0.4375,1.15625 0.300781,0.261719 0.71875,0.390625 1.25,0.390625 z m 0,0"
             id="path117" />
        </g>
      </g>
    </g>
    <g
       fill="#050a30"
       fill-opacity="1"
       id="g131">
      <g
         transform="translate(205.92401,193.12756)"
         id="g129">
        <g
           id="g127">
          <path
             d="m 1.5,0 v -8.625 h 1.21875 v 1.359375 l 0.15625,0.03125 c 0.289062,-0.5 0.65625,-0.878906 1.09375,-1.140625 0.445312,-0.269531 0.992188,-0.40625 1.640625,-0.40625 1.03125,0 1.78125,0.265625 2.25,0.796875 0.46875,0.523437 0.703125,1.335937 0.703125,2.4375 V 0 H 7.28125 v -5.515625 c 0,-0.519531 -0.070312,-0.9375 -0.203125,-1.25 C 6.953125,-7.085938 6.75,-7.316406 6.46875,-7.453125 6.1875,-7.597656 5.820312,-7.671875 5.375,-7.671875 c -0.78125,0 -1.414062,0.257813 -1.890625,0.765625 -0.46875,0.511719 -0.703125,1.339844 -0.703125,2.484375 V 0 Z m 0,0"
             id="path125" />
        </g>
      </g>
    </g>
    <g
       fill="#050a30"
       fill-opacity="1"
       id="g139">
      <g
         transform="translate(220.99545,193.12756)"
         id="g137">
        <g
           id="g135">
          <path
             d="M 4.953125,0.171875 C 4.191406,0.171875 3.507812,0 2.90625,-0.34375 2.300781,-0.695312 1.820312,-1.210938 1.46875,-1.890625 1.125,-2.566406 0.953125,-3.375 0.953125,-4.3125 c 0,-0.9375 0.171875,-1.742188 0.515625,-2.421875 0.351562,-0.675781 0.832031,-1.1875 1.4375,-1.53125 0.601562,-0.34375 1.285156,-0.515625 2.046875,-0.515625 0.90625,0 1.628906,0.171875 2.171875,0.515625 0.539062,0.34375 0.929688,0.804687 1.171875,1.375 l -0.875,0.625 H 7.265625 C 7.035156,-6.742188 6.734375,-7.09375 6.359375,-7.3125 5.992188,-7.53125 5.523438,-7.640625 4.953125,-7.640625 c -0.53125,0 -1,0.125 -1.40625,0.375 -0.398437,0.25 -0.710937,0.625 -0.9375,1.125 -0.21875,0.5 -0.328125,1.109375 -0.328125,1.828125 0,0.71875 0.109375,1.328125 0.328125,1.828125 0.226563,0.5 0.539063,0.875 0.9375,1.125 0.40625,0.25 0.875,0.375 1.40625,0.375 0.59375,0 1.085937,-0.132813 1.484375,-0.40625 0.394531,-0.269531 0.703125,-0.695313 0.921875,-1.28125 H 7.53125 l 0.828125,0.5 c -0.21875,0.71875 -0.621094,1.292969 -1.203125,1.71875 -0.574219,0.4179688 -1.308594,0.625 -2.203125,0.625 z m 0,0"
             id="path133" />
        </g>
      </g>
    </g>
    <g
       fill="#050a30"
       fill-opacity="1"
       id="g147">
      <g
         transform="translate(235.02809,193.12756)"
         id="g145">
        <g
           id="g143">
          <path
             d="M 8.21875,-4.015625 H 2.296875 c 0.03125,1.042969 0.28125,1.808594 0.75,2.296875 0.46875,0.492188 1.109375,0.734375 1.921875,0.734375 0.613281,0 1.109375,-0.109375 1.484375,-0.328125 0.375,-0.21875 0.664063,-0.5625 0.875,-1.03125 H 7.5 l 0.828125,0.5 c -0.25,0.625 -0.652344,1.121094 -1.203125,1.484375 -0.554688,0.35546875 -1.273438,0.53125 -2.15625,0.53125 -0.835938,0 -1.554688,-0.16796875 -2.15625,-0.5 -0.59375,-0.332031 -1.054688,-0.832031 -1.375,-1.5 C 1.113281,-2.492188 0.953125,-3.320312 0.953125,-4.3125 c 0,-0.976562 0.164063,-1.800781 0.5,-2.46875 0.34375,-0.675781 0.8125,-1.175781 1.40625,-1.5 0.59375,-0.332031 1.269531,-0.5 2.03125,-0.5 1.101563,0 1.960937,0.3125 2.578125,0.9375 0.625,0.617188 0.9375,1.539062 0.9375,2.765625 0,0.480469 -0.011719,0.804687 -0.03125,0.96875 z m -1.0625,-1.0625 c -0.023438,-0.914063 -0.226562,-1.582031 -0.609375,-2 -0.386719,-0.414063 -0.9375,-0.625 -1.65625,-0.625 -0.761719,0 -1.355469,0.210937 -1.78125,0.625 -0.429687,0.417969 -0.6875,1.085937 -0.78125,2 z m 0,0"
             id="path141" />
        </g>
      </g>
    </g>
  </g>
</svg>
